<mxfile host="65bd71144e">
    <diagram id="ZLEYI-vzXYFNbGRnPvDq" name="Page-1">
        <mxGraphModel dx="1825" dy="701" grid="1" gridSize="10" guides="1" tooltips="1" connect="1" arrows="1" fold="1" page="1" pageScale="1" pageWidth="1169" pageHeight="827" background="#ffffff" math="0" shadow="0">
            <root>
                <mxCell id="0"/>
                <mxCell id="1" parent="0"/>
                <mxCell id="205" value="DTCM" style="rounded=1;whiteSpace=wrap;html=1;fillColor=#e3c800;strokeWidth=2;strokeColor=#B09500;fontColor=#000000;arcSize=13;" parent="1" vertex="1">
                    <mxGeometry x="-460" y="220" width="78.57" height="84" as="geometry"/>
                </mxCell>
            </root>
        </mxGraphModel>
    </diagram>
</mxfile>